<?xml version="1.0" standalone="no"?>
<!DOCTYPE svg PUBLIC "-//W3C//DTD SVG 20010904//EN"
 "http://www.w3.org/TR/2001/REC-SVG-20010904/DTD/svg10.dtd">
<svg version="1.0" xmlns="http://www.w3.org/2000/svg"
 width="627.000000pt" height="627.000000pt" viewBox="0 0 627.000000 627.000000"
 preserveAspectRatio="xMidYMid meet">
<metadata>
Created by potrace 1.11, written by Peter Selinger 2001-2013
</metadata>
<g transform="translate(0.000000,627.000000) scale(0.100000,-0.100000)"
fill="#000000" stroke="none">
<path d="M3706 5950 c-9 -17 -27 -39 -39 -50 -11 -11 -17 -20 -11 -20 5 0 4
-4 -2 -8 -5 -4 -39 -45 -74 -92 -35 -47 -68 -86 -72 -88 -4 -2 -8 -10 -8 -18
0 -8 -4 -14 -10 -14 -5 0 -10 -7 -10 -15 0 -7 -6 -18 -13 -22 -6 -4 -25 -25
-40 -46 -16 -20 -39 -49 -53 -64 -13 -14 -24 -32 -24 -39 0 -8 -4 -14 -8 -14
-10 0 -77 -92 -74 -102 1 -5 -2 -8 -6 -8 -5 0 -24 -21 -43 -47 -44 -63 -44
-62 -78 -102 -17 -19 -28 -38 -25 -42 2 -4 0 -9 -5 -11 -5 -1 -37 -39 -70 -83
-33 -44 -64 -84 -69 -90 -4 -5 -19 -26 -32 -45 -13 -19 -35 -46 -47 -60 -13
-14 -26 -33 -29 -42 -3 -10 -10 -18 -16 -18 -6 0 -9 -3 -6 -6 3 -3 -6 -18 -20
-34 -44 -47 -53 -60 -45 -60 4 0 3 -4 -2 -8 -17 -12 -77 -92 -69 -92 3 0 -5
-10 -20 -21 -15 -12 -25 -23 -23 -26 3 -2 -5 -15 -17 -28 -24 -27 -28 -31 -81
-105 -22 -30 -42 -57 -45 -60 -3 -3 -22 -27 -41 -55 -18 -27 -39 -54 -45 -60
-6 -5 -22 -26 -34 -45 -13 -19 -29 -38 -35 -42 -5 -4 -7 -8 -3 -8 4 0 -5 -13
-20 -29 -43 -48 -53 -61 -45 -61 4 0 3 -4 -3 -8 -5 -4 -23 -25 -40 -47 -16
-22 -33 -45 -39 -52 -5 -7 -21 -27 -35 -44 -14 -18 -33 -40 -43 -51 -9 -10
-14 -18 -11 -18 6 0 -66 -91 -81 -102 -7 -5 -7 -8 0 -8 6 0 3 -6 -5 -13 -9 -7
-31 -34 -50 -61 -19 -28 -42 -57 -50 -66 -33 -37 -49 -60 -42 -60 4 0 -1 -5
-10 -11 -10 -5 -18 -16 -18 -23 0 -8 -7 -16 -15 -20 -8 -3 -15 -10 -15 -16 0
-5 -7 -18 -16 -27 -41 -46 -74 -89 -74 -95 0 -5 -8 -16 -17 -26 -28 -30 -58
-74 -58 -86 0 -12 114 -16 122 -4 2 5 10 5 16 1 17 -10 77 -11 83 -1 3 5 11 5
17 1 17 -11 57 -11 63 -1 3 4 11 5 17 1 17 -11 57 -11 63 -1 3 4 10 6 15 2 16
-10 99 -11 99 -1 0 6 5 5 13 0 6 -6 21 -9 32 -7 28 6 46 6 78 1 15 -2 30 0 33
5 3 4 10 5 16 2 17 -11 108 -12 114 -2 3 4 11 5 17 1 16 -10 57 -12 62 -3 3 4
17 5 32 3 61 -9 68 -9 81 0 7 6 12 6 12 -1 0 -5 15 -8 33 -5 38 4 41 4 87 0
19 -2 41 1 48 6 7 6 12 6 12 0 0 -5 21 -9 46 -8 32 0 52 6 67 21 26 24 57 62
57 69 0 3 8 14 18 24 19 22 20 23 87 111 27 36 53 67 57 68 4 2 8 9 8 16 0 7
11 23 25 36 14 13 25 28 25 32 0 5 6 15 13 22 23 25 57 66 57 70 0 3 65 91
145 196 80 105 145 195 145 200 0 4 7 10 15 14 8 3 15 12 15 20 0 7 7 17 16
20 9 4 14 9 11 12 -2 3 10 22 29 42 19 20 34 41 34 45 0 5 6 14 13 21 25 27
57 66 57 71 0 8 104 139 112 143 5 2 8 8 8 13 0 5 26 43 58 84 31 41 82 108
112 149 30 41 58 75 63 76 4 0 7 6 7 13 0 8 11 24 25 37 14 13 25 27 25 32 0
7 11 21 55 72 6 7 15 19 20 28 6 9 45 62 88 117 42 55 77 105 77 111 0 6 5 8
10 5 6 -3 10 0 10 9 0 8 3 16 8 18 11 5 72 86 72 96 0 6 7 13 16 16 9 4 14 9
11 12 -3 4 4 15 16 25 12 10 19 18 15 19 -5 0 8 17 27 37 19 20 35 40 35 44 0
3 8 15 18 27 9 11 24 30 32 42 8 13 24 31 34 41 11 11 16 19 10 19 -5 0 -4 4
2 8 17 11 164 211 164 223 0 5 5 7 10 4 6 -3 10 -1 10 5 0 11 12 28 44 60 11
11 16 20 10 20 -5 0 -1 5 9 11 9 5 17 14 17 19 0 6 -243 10 -643 10 l-643 0
-18 -30z"/>
<path d="M5154 5801 c4 -6 3 -11 -2 -11 -5 0 -24 -21 -43 -47 -18 -27 -43 -58
-54 -71 -11 -13 -19 -26 -17 -29 2 -2 -7 -13 -19 -24 -12 -10 -19 -19 -16 -19
4 0 -7 -14 -24 -31 -16 -16 -26 -35 -23 -41 4 -6 3 -8 -2 -5 -5 3 -21 -11 -34
-31 -14 -20 -27 -39 -30 -42 -3 -3 -25 -32 -50 -65 -25 -33 -48 -61 -52 -63
-5 -2 -8 -10 -8 -18 0 -9 -4 -12 -10 -9 -5 3 -10 0 -10 -8 0 -7 -8 -22 -17
-33 -10 -10 -31 -37 -47 -59 -17 -22 -35 -43 -40 -47 -6 -4 -8 -8 -3 -8 4 0
-1 -8 -10 -19 -25 -27 -52 -62 -71 -93 -9 -16 -20 -28 -24 -28 -15 0 -8 -29
10 -39 9 -6 13 -11 9 -11 -5 0 -2 -7 5 -15 37 -41 88 -113 88 -124 0 -6 7 -11
16 -11 8 0 12 -5 9 -10 -3 -6 1 -13 9 -16 9 -3 16 -12 16 -19 0 -7 3 -15 8
-17 5 -2 130 -165 158 -207 2 -2 22 -3 46 -2 24 0 52 1 63 0 16 0 183 0 230 1
6 0 131 -1 278 -2 148 -2 271 0 274 5 2 4 9 4 15 1 15 -10 308 -11 308 -2 0 4
7 5 14 2 13 -5 13 -2 3 20 -7 14 -18 26 -24 26 -7 0 -13 7 -13 15 0 9 -7 18
-15 21 -8 4 -13 9 -10 13 2 5 -11 25 -30 46 -19 21 -35 44 -35 51 0 8 -6 14
-13 14 -8 0 -19 12 -26 26 -9 21 -62 95 -81 114 -3 3 -16 21 -30 40 -32 46
-41 57 -67 86 -13 14 -23 31 -23 39 0 8 -7 15 -17 15 -9 0 -14 3 -10 6 3 4 1
12 -6 19 -7 7 -19 23 -27 35 -8 13 -23 32 -32 42 -10 10 -18 23 -18 28 0 6 -3
10 -8 10 -4 0 -13 14 -20 30 -8 17 -18 28 -23 24 -5 -3 -9 0 -9 6 0 12 -299
413 -312 418 -4 2 -8 10 -8 18 0 8 -4 14 -10 14 -5 0 -10 5 -10 11 0 7 -8 19
-17 28 -10 9 -23 25 -29 36 -6 10 -16 21 -24 23 -7 3 -10 0 -6 -7z"/>
<path d="M1775 5568 c-15 -9 -243 -310 -252 -333 -3 -8 -9 -12 -14 -9 -5 3 -9
-1 -9 -8 0 -7 -14 -29 -30 -48 -16 -19 -30 -38 -30 -42 0 -4 -8 -15 -18 -25
-10 -10 -36 -43 -57 -73 -22 -30 -47 -64 -57 -74 -10 -10 -15 -24 -11 -29 3
-6 2 -7 -4 -4 -6 4 -19 -9 -29 -28 -10 -19 -21 -35 -25 -35 -3 0 -32 -37 -65
-82 -32 -46 -67 -93 -77 -105 -11 -11 -19 -25 -20 -30 0 -4 -5 -12 -12 -18
-16 -13 -166 -213 -165 -220 1 -4 -9 -15 -22 -25 -13 -11 -20 -19 -15 -20 4 0
-6 -14 -23 -31 -16 -17 -27 -36 -23 -42 3 -6 1 -7 -5 -3 -7 4 -12 1 -12 -9 0
-9 -4 -13 -10 -10 -5 3 -10 0 -10 -7 0 -7 -11 -25 -24 -41 -13 -15 -34 -43
-47 -62 -13 -19 -27 -35 -31 -35 -5 0 -8 -4 -8 -10 0 -5 -8 -18 -17 -28 -10
-11 -27 -31 -37 -46 -11 -15 -30 -39 -43 -54 -13 -15 -23 -30 -23 -34 0 -5 -8
-17 -17 -27 -31 -34 -48 -55 -48 -61 0 -5 -28 -40 -53 -66 -7 -8 -10 -14 -5
-14 4 0 3 -4 -2 -8 -13 -9 -115 -140 -115 -147 0 -3 -11 -16 -25 -29 -13 -13
-23 -25 -20 -28 3 -2 -6 -15 -20 -28 -14 -13 -25 -29 -25 -36 0 -7 -3 -14 -8
-16 -4 -1 -23 -23 -42 -48 -19 -25 -39 -48 -45 -52 -5 -4 -6 -8 -2 -8 4 0 3
-6 -3 -12 -6 -7 -24 -28 -40 -47 -16 -19 -27 -39 -23 -45 3 -6 3 -8 -2 -4 -9
8 -34 -20 -35 -38 0 -11 78 -13 96 -2 6 4 14 5 18 1 10 -10 116 -9 116 1 0 4
6 4 12 -1 7 -6 22 -9 33 -7 28 6 46 6 78 1 15 -2 30 0 33 5 3 4 10 5 16 2 17
-11 108 -12 114 -2 3 4 11 5 17 1 17 -11 57 -11 63 -1 3 4 11 5 17 1 17 -11
57 -11 63 -1 3 4 11 5 17 1 17 -11 57 -11 63 -1 3 4 10 6 15 2 16 -10 99 -11
99 -1 0 6 5 5 13 0 6 -6 21 -9 32 -7 28 6 46 6 78 1 15 -2 30 0 33 5 3 4 10 5
16 2 17 -11 108 -12 114 -2 3 5 11 5 17 0 14 -10 47 -10 64 1 6 4 15 2 18 -4
8 -12 65 37 65 57 0 7 3 14 8 16 18 8 61 71 55 81 -3 7 -3 9 2 5 8 -8 55 43
55 60 0 6 3 12 8 14 9 4 82 94 82 102 0 6 31 44 58 72 6 7 12 15 12 18 0 3 38
55 85 116 47 61 85 114 85 119 0 5 4 11 8 13 9 3 198 252 194 255 -1 1 14 19
33 40 19 21 35 43 35 50 0 6 3 13 8 15 9 4 112 135 112 143 0 3 12 19 28 36
15 17 26 35 25 40 -2 5 1 9 6 9 5 0 26 24 47 53 20 28 41 54 46 55 4 2 8 8 8
13 0 10 101 142 112 147 5 2 8 9 8 16 0 7 11 23 25 36 14 13 23 25 21 28 -2 2
3 12 12 21 33 34 62 71 61 77 0 4 3 10 8 13 15 10 143 181 143 190 0 5 7 12
16 15 9 4 14 9 12 12 -3 3 7 19 23 37 16 17 29 37 29 44 0 7 4 13 9 13 8 0 83
96 80 103 -1 1 14 19 32 40 19 21 32 39 30 40 -2 1 6 13 18 27 54 64 71 86 71
93 0 5 -4 5 -10 2 -5 -3 -10 -3 -10 2 0 4 -44 7 -97 5 -54 -1 -111 -2 -128 -1
-33 1 -191 0 -215 -1 -8 -1 -33 1 -55 3 -22 2 -46 0 -52 -6 -7 -5 -13 -6 -13
-1 0 11 -130 11 -147 1 -7 -5 -13 -5 -13 0 0 10 -131 10 -147 0 -7 -5 -13 -5
-13 0 0 10 -131 10 -147 0 -7 -5 -13 -5 -13 0 0 10 -197 11 -215 1z"/>
<path d="M2 3056 c-3 -5 0 -6 5 -3 6 4 13 0 17 -8 7 -20 187 -259 198 -263 4
-2 8 -10 8 -18 0 -8 5 -14 10 -14 6 0 10 -7 10 -15 0 -8 3 -15 8 -15 4 0 23
-23 42 -50 19 -27 38 -50 43 -50 4 0 7 -7 7 -15 0 -8 5 -15 10 -15 6 0 10 -6
10 -14 0 -8 4 -16 8 -18 5 -1 50 -59 102 -128 52 -69 97 -126 102 -128 4 -2 8
-10 8 -18 0 -8 5 -14 10 -14 6 0 10 -7 10 -15 0 -8 3 -15 8 -15 4 0 23 -23 42
-50 19 -27 38 -50 43 -50 4 0 7 -7 7 -15 0 -8 5 -15 10 -15 6 0 10 -6 10 -14
0 -8 4 -16 8 -18 5 -1 71 -86 146 -188 76 -102 145 -190 152 -196 8 -6 14 -15
14 -19 0 -4 12 -22 28 -40 15 -19 43 -55 62 -82 19 -26 37 -50 41 -53 3 -3 20
-26 38 -52 17 -27 36 -48 41 -48 6 0 10 -6 10 -12 0 -7 10 -25 23 -40 12 -14
42 -54 67 -89 25 -34 50 -67 55 -73 6 -6 22 -27 35 -46 13 -19 27 -37 30 -40
3 -3 17 -21 30 -40 13 -19 27 -37 30 -40 4 -3 21 -27 40 -54 18 -27 40 -56 49
-65 9 -9 34 -43 56 -75 22 -32 46 -61 53 -63 6 -3 12 -11 12 -18 0 -28 44 -41
130 -39 47 1 87 3 90 4 3 1 10 1 15 0 29 -7 137 -5 141 2 3 5 10 5 16 2 16
-10 170 -12 190 -2 9 4 19 5 21 1 4 -7 163 -9 177 -3 3 1 10 1 15 0 26 -6 252
-5 266 2 9 4 19 4 23 1 10 -11 76 -11 76 -1 0 5 5 6 11 2 19 -11 109 -11 109
0 0 6 5 4 10 -4 9 -13 10 -13 10 0 0 15 -136 202 -152 208 -4 2 -8 10 -8 18 0
8 -7 17 -15 20 -8 4 -13 9 -10 13 2 4 -5 14 -16 21 -10 8 -19 18 -19 23 0 10
-61 90 -72 95 -5 2 -8 10 -8 17 0 7 -3 15 -8 17 -4 2 -23 23 -42 48 -19 25
-37 47 -40 50 -3 3 -11 17 -19 32 -8 15 -18 25 -23 22 -4 -3 -8 0 -8 6 0 10
-50 81 -70 100 -3 3 -11 17 -19 32 -8 15 -18 25 -23 22 -4 -3 -8 0 -8 6 0 15
-140 200 -152 200 -5 0 -7 4 -4 8 2 4 -8 22 -22 39 -15 17 -34 41 -42 53 -13
20 -24 34 -65 88 -5 8 -19 24 -30 36 -11 12 -21 26 -23 31 -1 6 -11 19 -20 30
-10 11 -33 42 -50 68 -18 26 -38 47 -44 47 -6 0 -9 3 -5 6 5 6 -10 28 -45 65
-9 9 -14 20 -11 23 3 3 -2 8 -11 12 -9 3 -16 12 -16 18 0 7 -11 23 -25 36 -14
13 -23 25 -21 27 3 4 -20 34 -56 74 -10 10 -18 22 -18 27 0 4 -14 21 -30 39
-17 18 -30 35 -30 38 0 3 -9 15 -20 27 -11 12 -20 28 -20 35 0 8 -4 11 -10 8
-5 -3 -10 1 -10 9 0 9 -9 21 -20 28 -11 7 -20 18 -20 24 0 7 -13 26 -29 43
-17 18 -30 34 -30 37 0 5 -24 38 -61 84 -8 10 -22 28 -30 41 -8 13 -25 33 -37
46 -13 13 -23 29 -23 36 0 7 -9 18 -20 25 -12 7 -19 16 -16 21 3 4 -4 14 -15
21 -10 8 -19 18 -19 23 0 4 -10 19 -22 33 -51 56 -56 63 -52 67 2 2 -3 10 -11
17 -13 11 -146 13 -656 14 -373 1 -643 -3 -647 -8z"/>
<path d="M1693 3060 l-32 -5 60 -80 c33 -44 66 -84 73 -90 7 -5 14 -14 15 -20
2 -10 331 -453 364 -489 9 -11 17 -24 17 -29 0 -12 26 -37 34 -32 3 3 4 2 1
-1 -4 -7 44 -76 58 -82 4 -2 7 -10 7 -17 0 -7 4 -15 8 -17 4 -1 43 -50 86
-108 44 -58 85 -110 93 -117 8 -6 13 -14 11 -17 -2 -3 8 -18 22 -33 14 -16 33
-39 42 -53 8 -14 27 -37 42 -53 14 -15 26 -31 26 -35 0 -4 14 -22 30 -39 15
-18 25 -33 22 -33 -4 -1 3 -9 15 -19 12 -10 19 -21 16 -25 -4 -3 -1 -6 6 -6 7
0 10 -4 7 -9 -3 -5 1 -11 9 -15 8 -3 15 -12 15 -21 0 -8 7 -15 16 -15 8 0 12
-5 9 -10 -3 -6 1 -13 9 -16 9 -3 16 -10 16 -16 0 -5 6 -16 13 -23 6 -8 20 -25
29 -37 9 -13 29 -38 43 -55 15 -18 24 -33 22 -33 -5 0 21 -34 56 -71 9 -10 17
-21 17 -24 0 -6 14 -24 43 -56 9 -10 17 -22 17 -26 0 -5 16 -26 35 -48 19 -22
35 -45 35 -52 0 -7 7 -13 17 -13 9 0 14 -3 10 -6 -6 -6 2 -19 43 -62 13 -15
23 -29 21 -30 -2 -2 10 -19 27 -37 16 -19 28 -36 26 -38 -2 -2 11 -20 30 -40
18 -20 32 -38 30 -39 -1 -2 13 -21 32 -43 19 -22 34 -46 34 -53 0 -7 4 -10 10
-7 5 3 10 1 10 -5 0 -6 9 -20 20 -32 11 -12 20 -28 20 -35 0 -8 5 -11 10 -8 6
3 10 -1 10 -9 0 -9 5 -16 10 -16 6 0 10 -4 10 -10 0 -10 9 -22 56 -74 13 -15
24 -29 23 -31 0 -9 34 -54 63 -85 14 -16 23 -31 20 -34 -3 -3 0 -6 6 -6 7 0
12 -7 12 -16 0 -8 4 -13 8 -10 4 2 14 -9 21 -25 25 -57 44 -62 236 -63 111 -1
175 3 175 9 0 7 3 7 8 0 4 -5 43 -10 87 -10 44 0 83 5 87 10 5 7 8 7 8 0 0 -6
82 -10 225 -10 143 0 225 4 225 10 0 7 3 7 8 0 4 -5 43 -10 87 -10 44 0 83 5
87 10 5 7 8 6 8 -1 0 -11 76 -11 87 0 4 3 1 6 -5 6 -7 0 -12 6 -12 14 0 8 -10
23 -23 33 -13 10 -23 21 -23 25 1 4 -7 17 -16 28 -10 11 -18 24 -18 29 0 5 -3
11 -8 13 -4 1 -23 23 -42 48 -19 25 -37 47 -40 50 -3 3 -11 17 -19 32 -8 15
-18 25 -23 22 -4 -3 -8 0 -8 6 0 12 -179 253 -192 258 -4 2 -8 10 -8 17 0 8
-8 19 -17 24 -10 6 -13 11 -8 11 6 0 6 3 0 8 -6 4 -58 70 -115 147 -58 77
-108 142 -112 143 -5 2 -8 10 -8 17 0 7 -4 15 -8 17 -9 3 -212 267 -250 324
-12 19 -27 34 -33 34 -5 0 -8 4 -4 9 3 6 -1 13 -8 18 -7 4 -23 25 -36 46 -12
20 -27 37 -32 37 -5 0 -9 7 -9 15 0 8 -4 15 -10 15 -5 0 -10 7 -10 16 0 8 -4
12 -10 9 -5 -3 -10 1 -10 9 0 9 -4 16 -10 16 -5 0 -10 6 -10 13 0 6 -15 29
-34 49 -19 20 -32 38 -30 40 2 2 -10 19 -26 37 -17 18 -30 36 -30 41 0 4 -4
10 -8 12 -5 2 -23 24 -41 51 -17 26 -37 47 -42 47 -6 0 -7 5 -4 10 3 6 -1 13
-9 16 -9 3 -16 12 -16 20 0 8 -5 14 -12 14 -6 0 -9 3 -5 6 3 4 -4 15 -16 25
-12 10 -18 18 -14 19 4 0 -7 14 -25 32 -18 18 -32 34 -30 36 4 3 -33 53 -60
83 -10 11 -18 24 -18 29 0 6 -4 10 -10 10 -5 0 -10 7 -10 16 0 8 -4 12 -10 9
-5 -3 -10 1 -10 9 0 9 -4 16 -10 16 -5 0 -10 4 -10 10 0 14 -81 120 -92 120
-5 0 -6 4 -3 10 3 5 -3 15 -15 22 -11 7 -20 21 -20 30 0 10 -6 18 -13 18 -7 0
-21 16 -30 35 -9 20 -24 38 -32 41 -8 4 -12 10 -9 15 3 5 -2 12 -10 15 -9 3
-16 11 -16 16 0 6 -10 22 -22 37 -13 15 -34 42 -48 61 -14 18 -31 39 -37 46
-7 7 -13 17 -13 23 0 6 -4 11 -10 11 -5 0 -10 5 -10 10 0 6 -8 18 -17 29 -10
10 -26 29 -35 41 l-17 23 -608 1 c-334 1 -622 -1 -640 -4z"/>
<path d="M4890 1747 c0 -5 -4 -6 -8 -3 -4 2 -26 -20 -47 -51 -37 -51 -59 -80
-85 -110 -6 -7 -10 -16 -9 -19 0 -4 -3 -10 -8 -13 -16 -12 -113 -141 -113
-151 0 -5 -4 -10 -8 -10 -17 0 -70 -81 -65 -100 3 -11 9 -20 14 -20 5 0 9 -6
9 -14 0 -8 3 -16 8 -18 4 -1 23 -23 42 -48 19 -25 37 -47 40 -50 3 -3 11 -17
19 -32 8 -15 18 -25 23 -22 4 3 8 0 8 -7 0 -6 25 -43 55 -80 31 -38 53 -69 50
-69 -3 0 3 -8 13 -19 16 -17 26 -29 82 -103 11 -14 20 -31 20 -38 0 -6 5 -8
10 -5 6 3 10 0 10 -7 0 -7 16 -30 35 -51 19 -21 35 -45 35 -53 0 -8 8 -14 17
-14 9 0 14 -3 10 -6 -6 -6 2 -19 40 -60 12 -13 19 -24 15 -24 -4 0 0 -6 8 -13
8 -7 20 -21 26 -32 12 -22 44 -33 44 -16 0 10 18 36 48 66 6 8 12 19 12 25 0
6 5 8 10 5 6 -3 10 -1 10 5 0 6 54 82 120 170 66 88 120 163 119 166 0 4 4 10
9 13 11 7 82 99 82 106 0 3 9 15 19 27 58 67 89 113 84 123 -4 5 -3 7 1 3 8
-6 136 156 136 172 0 4 7 10 15 14 8 3 15 12 15 20 0 7 7 17 16 20 9 4 14 9
11 12 -2 3 10 22 29 42 19 20 34 41 34 45 0 5 6 14 13 21 26 27 57 66 57 72 0
5 55 78 78 102 7 8 11 19 9 25 -4 12 -95 17 -118 5 -9 -4 -19 -4 -23 -1 -10
10 -118 11 -138 1 -9 -4 -19 -5 -21 -1 -4 7 -163 9 -177 3 -3 -1 -9 -1 -15 0
-26 6 -217 4 -222 -3 -2 -4 -9 -4 -15 -1 -15 10 -219 11 -225 1 -2 -4 -9 -4
-15 -1 -16 10 -248 11 -248 1z"/>
</g>
</svg>
